<?xml version="1.0" encoding="UTF-8" standalone="no"?>
<!DOCTYPE svg PUBLIC "-//W3C//DTD SVG 1.1//EN"
 "http://www.w3.org/Graphics/SVG/1.1/DTD/svg11.dtd">
<!-- Generated by graphviz version 2.26.3 (20100126.1600)
 -->
<!-- Title: G Pages: 1 -->
<svg width="466pt" height="832pt"
 viewBox="0.00 0.00 466.00 832.00" xmlns="http://www.w3.org/2000/svg" xmlns:xlink="http://www.w3.org/1999/xlink">
<g id="graph1" class="graph" transform="scale(1 1) rotate(0) translate(4 828)">
<title>G</title>
<polygon fill="white" stroke="white" points="-4,5 -4,-828 463,-828 463,5 -4,5"/>
<g id="graph2" class="cluster"><title>cluster_</title>
<polyline fill="none" stroke="gray" points="280,-8 438,-8 "/>
<path fill="none" stroke="gray" d="M438,-8C444,-8 450,-14 450,-20"/>
<polyline fill="none" stroke="gray" points="450,-20 450,-804 "/>
<path fill="none" stroke="gray" d="M450,-804C450,-810 444,-816 438,-816"/>
<polyline fill="none" stroke="gray" points="438,-816 280,-816 "/>
<path fill="none" stroke="gray" d="M280,-816C274,-816 268,-810 268,-804"/>
<polyline fill="none" stroke="gray" points="268,-804 268,-20 "/>
<path fill="none" stroke="gray" d="M268,-20C268,-14 274,-8 280,-8"/>
</g>
<!-- \\RuntimeConfigurable -->
<g id="node2" class="node"><title>\\RuntimeConfigurable</title>
<a xlink:href="RuntimeConfigurable.html" xlink:title="RuntimeConfigurable" target="_parent">
<polygon fill="none" stroke="black" points="431,-808 287,-808 287,-772 431,-772 431,-808"/>
<text text-anchor="middle" x="359" y="-787.1" font-family="Courier,monospace" font-size="11.00">RuntimeConfigurable</text>
</a>
</g>
<!-- \\UnknownElement -->
<g id="node3" class="node"><title>\\UnknownElement</title>
<a xlink:href="UnknownElement.html" xlink:title="UnknownElement" target="_parent">
<polygon fill="none" stroke="black" points="414,-700 304,-700 304,-664 414,-664 414,-700"/>
<text text-anchor="middle" x="359" y="-679.1" font-family="Courier,monospace" font-size="11.00">UnknownElement</text>
</a>
</g>
<!-- Task -->
<g id="node18" class="node"><title>Task</title>
<ellipse fill="none" stroke="black" cx="102" cy="-709" rx="33.234" ry="18.3848"/>
<text text-anchor="middle" x="102" y="-705.4" font-family="Times Roman,serif" font-size="14.00" fill="gray">Task</text>
</g>
<!-- \\UnknownElement&#45;&gt;Task -->
<g id="edge3" class="edge"><title>\\UnknownElement&#45;&gt;Task</title>
<path fill="none" stroke="black" d="M303.235,-687.859C255.536,-692.87 187.902,-699.975 144.487,-704.536"/>
<polygon fill="none" stroke="black" points="144.115,-701.056 134.535,-705.582 144.846,-708.018 144.115,-701.056"/>
</g>
<!-- \\ConfigurationException -->
<g id="node4" class="node"><title>\\ConfigurationException</title>
<a xlink:href="ConfigurationException.html" xlink:title="ConfigurationException" target="_parent">
<polygon fill="none" stroke="black" points="441,-484 277,-484 277,-448 441,-448 441,-484"/>
<text text-anchor="middle" x="359" y="-463.1" font-family="Courier,monospace" font-size="11.00">ConfigurationException</text>
</a>
</g>
<!-- Exception -->
<g id="node20" class="node"><title>Exception</title>
<ellipse fill="none" stroke="black" cx="102" cy="-439" rx="58.8978" ry="18.3848"/>
<text text-anchor="middle" x="102" y="-435.4" font-family="Times Roman,serif" font-size="14.00" fill="gray">Exception</text>
</g>
<!-- \\ConfigurationException&#45;&gt;Exception -->
<g id="edge5" class="edge"><title>\\ConfigurationException&#45;&gt;Exception</title>
<path fill="none" stroke="black" d="M276.269,-457.308C241.428,-453.648 201.424,-449.445 168.538,-445.99"/>
<polygon fill="none" stroke="black" points="168.885,-442.508 158.574,-444.944 168.153,-449.469 168.885,-442.508"/>
</g>
<!-- \\TaskContainer -->
<g id="node5" class="node"><title>\\TaskContainer</title>
<a xlink:href="TaskContainer.html" xlink:title="TaskContainer" target="_parent">
<polygon fill="none" stroke="black" points="411,-646 307,-646 307,-610 411,-610 411,-646"/>
<text text-anchor="middle" x="359" y="-625.1" font-family="Courier,monospace" font-size="11.00">TaskContainer</text>
</a>
</g>
<!-- \\Phing -->
<g id="node6" class="node"><title>\\Phing</title>
<a xlink:href="Phing.html" xlink:title="Phing" target="_parent">
<polygon fill="none" stroke="black" points="386,-592 332,-592 332,-556 386,-556 386,-592"/>
<text text-anchor="middle" x="359" y="-571.1" font-family="Courier,monospace" font-size="11.00">Phing</text>
</a>
</g>
<!-- \\Project -->
<g id="node7" class="node"><title>\\Project</title>
<a xlink:href="Project.html" xlink:title="Project" target="_parent">
<polygon fill="none" stroke="black" points="391,-538 327,-538 327,-502 391,-502 391,-538"/>
<text text-anchor="middle" x="359" y="-517.1" font-family="Courier,monospace" font-size="11.00">Project</text>
</a>
</g>
<!-- \\BuildException -->
<g id="node8" class="node"><title>\\BuildException</title>
<a xlink:href="BuildException.html" xlink:title="BuildException" target="_parent">
<polygon fill="none" stroke="black" points="414,-430 304,-430 304,-394 414,-394 414,-430"/>
<text text-anchor="middle" x="359" y="-409.1" font-family="Courier,monospace" font-size="11.00">BuildException</text>
</a>
</g>
<!-- \\BuildException&#45;&gt;Exception -->
<g id="edge7" class="edge"><title>\\BuildException&#45;&gt;Exception</title>
<path fill="none" stroke="black" d="M303.235,-417.859C263.684,-422.014 210.425,-427.609 168.633,-432"/>
<polygon fill="none" stroke="black" points="168.123,-428.534 158.544,-433.06 168.855,-435.496 168.123,-428.534"/>
</g>
<!-- \\Task -->
<g id="node9" class="node"><title>\\Task</title>
<a xlink:href="Task.html" xlink:title="Task" target="_parent">
<polygon fill="none" stroke="black" points="386,-376 332,-376 332,-340 386,-340 386,-376"/>
<text text-anchor="middle" x="359" y="-355.1" font-family="Courier,monospace" font-size="11.00">Task</text>
</a>
</g>
<!-- ProjectComponent -->
<g id="node23" class="node"><title>ProjectComponent</title>
<ellipse fill="none" stroke="black" cx="102" cy="-358" rx="101.823" ry="18.3848"/>
<text text-anchor="middle" x="102" y="-354.4" font-family="Times Roman,serif" font-size="14.00" fill="gray">ProjectComponent</text>
</g>
<!-- \\Task&#45;&gt;ProjectComponent -->
<g id="edge9" class="edge"><title>\\Task&#45;&gt;ProjectComponent</title>
<path fill="none" stroke="black" d="M331.982,-358C303.826,-358 257.821,-358 214.328,-358"/>
<polygon fill="none" stroke="black" points="214.22,-354.5 204.22,-358 214.22,-361.5 214.22,-354.5"/>
</g>
<!-- \\BuildLogger -->
<g id="node10" class="node"><title>\\BuildLogger</title>
<a xlink:href="BuildLogger.html" xlink:title="BuildLogger" target="_parent">
<polygon fill="none" stroke="black" points="404,-268 314,-268 314,-232 404,-232 404,-268"/>
<text text-anchor="middle" x="359" y="-247.1" font-family="Courier,monospace" font-size="11.00">BuildLogger</text>
</a>
</g>
<!-- BuildListener -->
<g id="node25" class="node"><title>BuildListener</title>
<ellipse fill="none" stroke="black" cx="102" cy="-250" rx="75.1594" ry="18.3848"/>
<text text-anchor="middle" x="102" y="-246.4" font-family="Times Roman,serif" font-size="14.00" fill="gray">BuildListener</text>
</g>
<!-- \\BuildLogger&#45;&gt;BuildListener -->
<g id="edge11" class="edge"><title>\\BuildLogger&#45;&gt;BuildListener</title>
<path fill="none" stroke="black" d="M313.35,-250C278.637,-250 229.863,-250 187.915,-250"/>
<polygon fill="none" stroke="black" points="187.69,-246.5 177.69,-250 187.69,-253.5 187.69,-246.5"/>
</g>
<!-- \\ProjectComponent -->
<g id="node11" class="node"><title>\\ProjectComponent</title>
<a xlink:href="ProjectComponent.html" xlink:title="ProjectComponent" target="_parent">
<polygon fill="none" stroke="black" points="421,-322 297,-322 297,-286 421,-286 421,-322"/>
<text text-anchor="middle" x="359" y="-301.1" font-family="Courier,monospace" font-size="11.00">ProjectComponent</text>
</a>
</g>
<!-- \\TaskAdapter -->
<g id="node12" class="node"><title>\\TaskAdapter</title>
<a xlink:href="TaskAdapter.html" xlink:title="TaskAdapter" target="_parent">
<polygon fill="none" stroke="black" points="404,-754 314,-754 314,-718 404,-718 404,-754"/>
<text text-anchor="middle" x="359" y="-733.1" font-family="Courier,monospace" font-size="11.00">TaskAdapter</text>
</a>
</g>
<!-- \\TaskAdapter&#45;&gt;Task -->
<g id="edge13" class="edge"><title>\\TaskAdapter&#45;&gt;Task</title>
<path fill="none" stroke="black" d="M313.35,-731.204C265.61,-726.189 191.275,-718.379 144.677,-713.484"/>
<polygon fill="none" stroke="black" points="144.915,-709.989 134.604,-712.425 144.184,-716.951 144.915,-709.989"/>
</g>
<!-- \\BuildEvent -->
<g id="node13" class="node"><title>\\BuildEvent</title>
<a xlink:href="BuildEvent.html" xlink:title="BuildEvent" target="_parent">
<polygon fill="none" stroke="black" points="401,-214 317,-214 317,-178 401,-178 401,-214"/>
<text text-anchor="middle" x="359" y="-193.1" font-family="Courier,monospace" font-size="11.00">BuildEvent</text>
</a>
</g>
<!-- EventObject -->
<g id="node28" class="node"><title>EventObject</title>
<ellipse fill="none" stroke="black" cx="102" cy="-196" rx="70.9184" ry="18.3848"/>
<text text-anchor="middle" x="102" y="-192.4" font-family="Times Roman,serif" font-size="14.00" fill="gray">EventObject</text>
</g>
<!-- \\BuildEvent&#45;&gt;EventObject -->
<g id="edge15" class="edge"><title>\\BuildEvent&#45;&gt;EventObject</title>
<path fill="none" stroke="black" d="M316.849,-196C280.849,-196 228.019,-196 183.756,-196"/>
<polygon fill="none" stroke="black" points="183.581,-192.5 173.58,-196 183.58,-199.5 183.581,-192.5"/>
</g>
<!-- \\BuildListener -->
<g id="node14" class="node"><title>\\BuildListener</title>
<a xlink:href="BuildListener.html" xlink:title="BuildListener" target="_parent">
<polygon fill="none" stroke="black" points="411,-160 307,-160 307,-124 411,-124 411,-160"/>
<text text-anchor="middle" x="359" y="-139.1" font-family="Courier,monospace" font-size="11.00">BuildListener</text>
</a>
</g>
<!-- \\Target -->
<g id="node15" class="node"><title>\\Target</title>
<a xlink:href="Target.html" xlink:title="Target" target="_parent">
<polygon fill="none" stroke="black" points="387,-106 331,-106 331,-70 387,-70 387,-106"/>
<text text-anchor="middle" x="359" y="-85.1" font-family="Courier,monospace" font-size="11.00">Target</text>
</a>
</g>
<!-- TaskContainer -->
<g id="node30" class="node"><title>TaskContainer</title>
<ellipse fill="none" stroke="black" cx="102" cy="-88" rx="80.8184" ry="18.3848"/>
<text text-anchor="middle" x="102" y="-84.4" font-family="Times Roman,serif" font-size="14.00" fill="gray">TaskContainer</text>
</g>
<!-- \\Target&#45;&gt;TaskContainer -->
<g id="edge17" class="edge"><title>\\Target&#45;&gt;TaskContainer</title>
<path fill="none" stroke="black" stroke-dasharray="1,5" d="M330.018,-88C297.112,-88 241.771,-88 193.851,-88"/>
<polygon fill="none" stroke="black" points="193.749,-84.5001 183.749,-88 193.749,-91.5001 193.749,-84.5001"/>
</g>
<!-- \\IntrospectionHelper -->
<g id="node16" class="node"><title>\\IntrospectionHelper</title>
<a xlink:href="IntrospectionHelper.html" xlink:title="IntrospectionHelper" target="_parent">
<polygon fill="none" stroke="black" points="431,-52 287,-52 287,-16 431,-16 431,-52"/>
<text text-anchor="middle" x="359" y="-31.1" font-family="Courier,monospace" font-size="11.00">IntrospectionHelper</text>
</a>
</g>
</g>
</svg>
